<?xml version="1.0" encoding="UTF-8" standalone="no"?>
<!DOCTYPE svg PUBLIC "-//W3C//DTD SVG 1.1//EN"
 "http://www.w3.org/Graphics/SVG/1.1/DTD/svg11.dtd">
<!-- Generated by graphviz version 2.38.0 (20140413.2041)
 -->
<!-- Title: G Pages: 1 -->
<svg width="1215pt" height="1260pt"
 viewBox="0.00 0.00 1215.22 1260.00" xmlns="http://www.w3.org/2000/svg" xmlns:xlink="http://www.w3.org/1999/xlink">
<g id="graph0" class="graph" transform="scale(1 1) rotate(0) translate(4 1256)">
<title>G</title>
<polygon fill="white" stroke="none" points="-4,4 -4,-1256 1211.22,-1256 1211.22,4 -4,4"/>
<g id="clust1" class="cluster"><title>cluster_Global</title>
<path fill="none" stroke="gray" d="M611.695,-98C611.695,-98 1187.22,-98 1187.22,-98 1193.22,-98 1199.22,-104 1199.22,-110 1199.22,-110 1199.22,-1232 1199.22,-1232 1199.22,-1238 1193.22,-1244 1187.22,-1244 1187.22,-1244 611.695,-1244 611.695,-1244 605.695,-1244 599.695,-1238 599.695,-1232 599.695,-1232 599.695,-110 599.695,-110 599.695,-104 605.695,-98 611.695,-98"/>
<text text-anchor="middle" x="899.46" y="-1231.2" font-family="Times,serif" font-size="11.00" fill="gray">Global</text>
</g>
<g id="clust2" class="cluster"><title>cluster_\H4MSK1</title>
<path fill="none" stroke="gray" d="M619.695,-464C619.695,-464 1142.22,-464 1142.22,-464 1148.22,-464 1154.22,-470 1154.22,-476 1154.22,-476 1154.22,-1204 1154.22,-1204 1154.22,-1210 1148.22,-1216 1142.22,-1216 1142.22,-1216 619.695,-1216 619.695,-1216 613.695,-1216 607.695,-1210 607.695,-1204 607.695,-1204 607.695,-476 607.695,-476 607.695,-470 613.695,-464 619.695,-464"/>
<text text-anchor="middle" x="880.96" y="-1203.2" font-family="Times,serif" font-size="11.00" fill="gray">H4MSK1</text>
</g>
<g id="clust3" class="cluster"><title>cluster_\H4MSK1\Game</title>
<path fill="none" stroke="gray" d="M1059.72,-1116C1059.72,-1116 1105.72,-1116 1105.72,-1116 1111.72,-1116 1117.72,-1122 1117.72,-1128 1117.72,-1128 1117.72,-1176 1117.72,-1176 1117.72,-1182 1111.72,-1188 1105.72,-1188 1105.72,-1188 1059.72,-1188 1059.72,-1188 1053.72,-1188 1047.72,-1182 1047.72,-1176 1047.72,-1176 1047.72,-1128 1047.72,-1128 1047.72,-1122 1053.72,-1116 1059.72,-1116"/>
<text text-anchor="middle" x="1082.72" y="-1175.2" font-family="Times,serif" font-size="11.00" fill="gray">Game</text>
</g>
<g id="clust4" class="cluster"><title>cluster_\H4MSK1\Dice</title>
<path fill="none" stroke="gray" d="M627.695,-874C627.695,-874 1134.22,-874 1134.22,-874 1140.22,-874 1146.22,-880 1146.22,-886 1146.22,-886 1146.22,-1096 1146.22,-1096 1146.22,-1102 1140.22,-1108 1134.22,-1108 1134.22,-1108 627.695,-1108 627.695,-1108 621.695,-1108 615.695,-1102 615.695,-1096 615.695,-1096 615.695,-886 615.695,-886 615.695,-880 621.695,-874 627.695,-874"/>
<text text-anchor="middle" x="880.96" y="-1095.2" font-family="Times,serif" font-size="11.00" fill="gray">Dice</text>
</g>
<g id="clust5" class="cluster"><title>cluster_\H4MSK1\Guess</title>
<path fill="none" stroke="gray" d="M1031.22,-552C1031.22,-552 1134.22,-552 1134.22,-552 1140.22,-552 1146.22,-558 1146.22,-564 1146.22,-564 1146.22,-720 1146.22,-720 1146.22,-726 1140.22,-732 1134.22,-732 1134.22,-732 1031.22,-732 1031.22,-732 1025.22,-732 1019.22,-726 1019.22,-720 1019.22,-720 1019.22,-564 1019.22,-564 1019.22,-558 1025.22,-552 1031.22,-552"/>
<text text-anchor="middle" x="1082.72" y="-719.2" font-family="Times,serif" font-size="11.00" fill="gray">Guess</text>
</g>
<g id="clust6" class="cluster"><title>cluster_\H4MSK1\Content</title>
<path fill="none" stroke="gray" d="M664.695,-740C664.695,-740 1105.72,-740 1105.72,-740 1111.72,-740 1117.72,-746 1117.72,-752 1117.72,-752 1117.72,-854 1117.72,-854 1117.72,-860 1111.72,-866 1105.72,-866 1105.72,-866 664.695,-866 664.695,-866 658.695,-866 652.695,-860 652.695,-854 652.695,-854 652.695,-752 652.695,-752 652.695,-746 658.695,-740 664.695,-740"/>
<text text-anchor="middle" x="885.21" y="-853.2" font-family="Times,serif" font-size="11.00" fill="gray">Content</text>
</g>
<g id="clust7" class="cluster"><title>cluster_\H4MSK1\Filter</title>
<path fill="none" stroke="gray" d="M1044.72,-472C1044.72,-472 1120.72,-472 1120.72,-472 1126.72,-472 1132.72,-478 1132.72,-484 1132.72,-484 1132.72,-532 1132.72,-532 1132.72,-538 1126.72,-544 1120.72,-544 1120.72,-544 1044.72,-544 1044.72,-544 1038.72,-544 1032.72,-538 1032.72,-532 1032.72,-532 1032.72,-484 1032.72,-484 1032.72,-478 1038.72,-472 1044.72,-472"/>
<text text-anchor="middle" x="1082.72" y="-531.2" font-family="Times,serif" font-size="11.00" fill="gray">Filter</text>
</g>
<g id="clust8" class="cluster"><title>cluster_\Anax</title>
<path fill="none" stroke="gray" d="M986.225,-106C986.225,-106 1179.22,-106 1179.22,-106 1185.22,-106 1191.22,-112 1191.22,-118 1191.22,-118 1191.22,-444 1191.22,-444 1191.22,-450 1185.22,-456 1179.22,-456 1179.22,-456 986.225,-456 986.225,-456 980.225,-456 974.225,-450 974.225,-444 974.225,-444 974.225,-118 974.225,-118 974.225,-112 980.225,-106 986.225,-106"/>
<text text-anchor="middle" x="1082.72" y="-443.2" font-family="Times,serif" font-size="11.00" fill="gray">Anax</text>
</g>
<g id="clust9" class="cluster"><title>cluster_\Anax\Page</title>
<path fill="none" stroke="gray" d="M1059.72,-356C1059.72,-356 1105.72,-356 1105.72,-356 1111.72,-356 1117.72,-362 1117.72,-368 1117.72,-368 1117.72,-416 1117.72,-416 1117.72,-422 1111.72,-428 1105.72,-428 1105.72,-428 1059.72,-428 1059.72,-428 1053.72,-428 1047.72,-422 1047.72,-416 1047.72,-416 1047.72,-368 1047.72,-368 1047.72,-362 1053.72,-356 1059.72,-356"/>
<text text-anchor="middle" x="1082.72" y="-415.2" font-family="Times,serif" font-size="11.00" fill="gray">Page</text>
</g>
<g id="clust10" class="cluster"><title>cluster_\Anax\Controller</title>
<path fill="none" stroke="gray" d="M994.225,-114C994.225,-114 1171.22,-114 1171.22,-114 1177.22,-114 1183.22,-120 1183.22,-126 1183.22,-126 1183.22,-336 1183.22,-336 1183.22,-342 1177.22,-348 1171.22,-348 1171.22,-348 994.225,-348 994.225,-348 988.225,-348 982.225,-342 982.225,-336 982.225,-336 982.225,-126 982.225,-126 982.225,-120 988.225,-114 994.225,-114"/>
<text text-anchor="middle" x="1082.72" y="-335.2" font-family="Times,serif" font-size="11.00" fill="gray">Controller</text>
</g>
<!-- \\H4MSK1\\Game\\Game -->
<g id="node1" class="node"><title>\\H4MSK1\\Game\\Game</title>
<polygon fill="none" stroke="black" points="1109.72,-1160 1055.72,-1160 1055.72,-1124 1109.72,-1124 1109.72,-1160"/>
<text text-anchor="middle" x="1082.72" y="-1139.2" font-family="Courier,monospace" font-size="11.00">Game</text>
</g>
<!-- \\H4MSK1\\Dice\\DiceGraphic -->
<g id="node2" class="node"><title>\\H4MSK1\\Dice\\DiceGraphic</title>
<polygon fill="none" stroke="black" points="1128.22,-1080 1037.22,-1080 1037.22,-1044 1128.22,-1044 1128.22,-1080"/>
<text text-anchor="middle" x="1082.72" y="-1059.2" font-family="Courier,monospace" font-size="11.00">DiceGraphic</text>
</g>
<!-- \\H4MSK1\\Dice\\Dice -->
<g id="node4" class="node"><title>\\H4MSK1\\Dice\\Dice</title>
<polygon fill="none" stroke="black" points="719.695,-1080 665.695,-1080 665.695,-1044 719.695,-1044 719.695,-1080"/>
<text text-anchor="middle" x="692.695" y="-1059.2" font-family="Courier,monospace" font-size="11.00">Dice</text>
</g>
<!-- \\H4MSK1\\Dice\\DiceGraphic&#45;&gt;\\H4MSK1\\Dice\\Dice -->
<g id="edge3" class="edge"><title>\\H4MSK1\\Dice\\DiceGraphic&#45;&gt;\\H4MSK1\\Dice\\Dice</title>
<path fill="none" stroke="black" d="M1037.21,-1062C959.77,-1062 801.689,-1062 730.222,-1062"/>
<polygon fill="none" stroke="black" points="729.923,-1058.5 719.923,-1062 729.923,-1065.5 729.923,-1058.5"/>
</g>
<!-- \\H4MSK1\\Dice\\Histogram -->
<g id="node3" class="node"><title>\\H4MSK1\\Dice\\Histogram</title>
<polygon fill="none" stroke="black" points="1121.22,-1026 1044.22,-1026 1044.22,-990 1121.22,-990 1121.22,-1026"/>
<text text-anchor="middle" x="1082.72" y="-1005.2" font-family="Courier,monospace" font-size="11.00">Histogram</text>
</g>
<!-- \\H4MSK1\\Dice\\DiceHand -->
<g id="node5" class="node"><title>\\H4MSK1\\Dice\\DiceHand</title>
<polygon fill="none" stroke="black" points="1118.22,-972 1047.22,-972 1047.22,-936 1118.22,-936 1118.22,-972"/>
<text text-anchor="middle" x="1082.72" y="-951.2" font-family="Courier,monospace" font-size="11.00">DiceHand</text>
</g>
<!-- \\H4MSK1\\Dice\\HistogramInterface -->
<g id="node6" class="node"><title>\\H4MSK1\\Dice\\HistogramInterface</title>
<polygon fill="none" stroke="black" points="761.695,-972 623.695,-972 623.695,-936 761.695,-936 761.695,-972"/>
<text text-anchor="middle" x="692.695" y="-951.2" font-family="Courier,monospace" font-size="11.00">HistogramInterface</text>
</g>
<!-- \\H4MSK1\\Dice\\DiceHand&#45;&gt;\\H4MSK1\\Dice\\HistogramInterface -->
<g id="edge8" class="edge"><title>\\H4MSK1\\Dice\\DiceHand&#45;&gt;\\H4MSK1\\Dice\\HistogramInterface</title>
<path fill="none" stroke="black" stroke-dasharray="1,5" d="M1046.95,-954C985.368,-954 855.741,-954 771.806,-954"/>
<polygon fill="none" stroke="black" points="771.804,-950.5 761.804,-954 771.804,-957.5 771.804,-950.5"/>
</g>
<!-- \\H4MSK1\\Dice\\HistogramTrait -->
<g id="node7" class="node"><title>\\H4MSK1\\Dice\\HistogramTrait</title>
<polygon fill="none" stroke="black" points="1138.22,-918 1027.22,-918 1027.22,-882 1138.22,-882 1138.22,-918"/>
<text text-anchor="middle" x="1082.72" y="-897.2" font-family="Courier,monospace" font-size="11.00">HistogramTrait</text>
</g>
<!-- \\H4MSK1\\Guess\\GuessException -->
<g id="node8" class="node"><title>\\H4MSK1\\Guess\\GuessException</title>
<polygon fill="none" stroke="black" points="1138.22,-704 1027.22,-704 1027.22,-668 1138.22,-668 1138.22,-704"/>
<text text-anchor="middle" x="1082.72" y="-683.2" font-family="Courier,monospace" font-size="11.00">GuessException</text>
</g>
<!-- \\Exception -->
<g id="node21" class="node"><title>\\Exception</title>
<ellipse fill="none" stroke="black" cx="692.695" cy="-72" rx="60.3893" ry="18"/>
<text text-anchor="middle" x="692.695" y="-68.3" font-family="Times,serif" font-size="14.00" fill="gray">\Exception</text>
</g>
<!-- \\H4MSK1\\Guess\\GuessException&#45;&gt;\\Exception -->
<g id="edge7" class="edge"><title>\\H4MSK1\\Guess\\GuessException&#45;&gt;\\Exception</title>
<path fill="none" stroke="black" d="M1027.21,-681.712C1008.78,-677.967 989.121,-671.182 974.225,-659 785.854,-504.942 715.853,-194.435 698.403,-99.926"/>
<polygon fill="none" stroke="black" points="701.829,-99.2058 696.615,-89.9827 694.94,-100.444 701.829,-99.2058"/>
</g>
<!-- \\H4MSK1\\Guess\\Session -->
<g id="node9" class="node"><title>\\H4MSK1\\Guess\\Session</title>
<polygon fill="none" stroke="black" points="1114.72,-650 1050.72,-650 1050.72,-614 1114.72,-614 1114.72,-650"/>
<text text-anchor="middle" x="1082.72" y="-629.2" font-family="Courier,monospace" font-size="11.00">Session</text>
</g>
<!-- \\H4MSK1\\Guess\\Guess -->
<g id="node10" class="node"><title>\\H4MSK1\\Guess\\Guess</title>
<polygon fill="none" stroke="black" points="1109.72,-596 1055.72,-596 1055.72,-560 1109.72,-560 1109.72,-596"/>
<text text-anchor="middle" x="1082.72" y="-575.2" font-family="Courier,monospace" font-size="11.00">Guess</text>
</g>
<!-- \\H4MSK1\\Content\\Blog -->
<g id="node11" class="node"><title>\\H4MSK1\\Content\\Blog</title>
<polygon fill="none" stroke="black" points="1109.72,-838 1055.72,-838 1055.72,-802 1109.72,-802 1109.72,-838"/>
<text text-anchor="middle" x="1082.72" y="-817.2" font-family="Courier,monospace" font-size="11.00">Blog</text>
</g>
<!-- \\H4MSK1\\Content\\Content -->
<g id="node12" class="node"><title>\\H4MSK1\\Content\\Content</title>
<polygon fill="none" stroke="black" points="724.695,-811 660.695,-811 660.695,-775 724.695,-775 724.695,-811"/>
<text text-anchor="middle" x="692.695" y="-790.2" font-family="Courier,monospace" font-size="11.00">Content</text>
</g>
<!-- \\H4MSK1\\Content\\Blog&#45;&gt;\\H4MSK1\\Content\\Content -->
<g id="edge9" class="edge"><title>\\H4MSK1\\Content\\Blog&#45;&gt;\\H4MSK1\\Content\\Content</title>
<path fill="none" stroke="black" d="M1055.66,-818.187C989.638,-813.592 815.359,-801.466 735.159,-795.885"/>
<polygon fill="none" stroke="black" points="735.163,-792.377 724.944,-795.174 734.677,-799.36 735.163,-792.377"/>
</g>
<!-- \\Anax\\Commons\\AppInjectableInterface -->
<g id="node22" class="node"><title>\\Anax\\Commons\\AppInjectableInterface</title>
<ellipse fill="none" stroke="black" cx="197.582" cy="-793" rx="197.665" ry="18"/>
<text text-anchor="middle" x="197.582" y="-789.3" font-family="Times,serif" font-size="14.00" fill="gray">\Anax\Commons\AppInjectableInterface</text>
</g>
<!-- \\H4MSK1\\Content\\Content&#45;&gt;\\Anax\\Commons\\AppInjectableInterface -->
<g id="edge10" class="edge"><title>\\H4MSK1\\Content\\Content&#45;&gt;\\Anax\\Commons\\AppInjectableInterface</title>
<path fill="none" stroke="black" stroke-dasharray="1,5" d="M660.474,-793C609.15,-793 502.878,-793 405.198,-793"/>
<polygon fill="none" stroke="black" points="405.167,-789.5 395.167,-793 405.167,-796.5 405.167,-789.5"/>
</g>
<!-- \\H4MSK1\\Content\\Page -->
<g id="node13" class="node"><title>\\H4MSK1\\Content\\Page</title>
<polygon fill="none" stroke="black" points="1109.72,-784 1055.72,-784 1055.72,-748 1109.72,-748 1109.72,-784"/>
<text text-anchor="middle" x="1082.72" y="-763.2" font-family="Courier,monospace" font-size="11.00">Page</text>
</g>
<!-- \\H4MSK1\\Content\\Page&#45;&gt;\\H4MSK1\\Content\\Content -->
<g id="edge11" class="edge"><title>\\H4MSK1\\Content\\Page&#45;&gt;\\H4MSK1\\Content\\Content</title>
<path fill="none" stroke="black" d="M1055.66,-767.813C989.638,-772.408 815.359,-784.534 735.159,-790.115"/>
<polygon fill="none" stroke="black" points="734.677,-786.64 724.944,-790.826 735.163,-793.623 734.677,-786.64"/>
</g>
<!-- \\H4MSK1\\Filter\\TextFilter -->
<g id="node14" class="node"><title>\\H4MSK1\\Filter\\TextFilter</title>
<polygon fill="none" stroke="black" points="1124.72,-516 1040.72,-516 1040.72,-480 1124.72,-480 1124.72,-516"/>
<text text-anchor="middle" x="1082.72" y="-495.2" font-family="Courier,monospace" font-size="11.00">TextFilter</text>
</g>
<!-- \\Anax\\Page\\Page -->
<g id="node15" class="node"><title>\\Anax\\Page\\Page</title>
<polygon fill="none" stroke="black" points="1109.72,-400 1055.72,-400 1055.72,-364 1109.72,-364 1109.72,-400"/>
<text text-anchor="middle" x="1082.72" y="-379.2" font-family="Courier,monospace" font-size="11.00">Page</text>
</g>
<!-- \\Anax\\Commons\\ContainerInjectableInterface -->
<g id="node20" class="node"><title>\\Anax\\Commons\\ContainerInjectableInterface</title>
<ellipse fill="none" stroke="black" cx="692.695" cy="-18" rx="225.56" ry="18"/>
<text text-anchor="middle" x="692.695" y="-14.3" font-family="Times,serif" font-size="14.00" fill="gray">\Anax\Commons\ContainerInjectableInterface</text>
</g>
<!-- \\Anax\\Page\\Page&#45;&gt;\\Anax\\Commons\\ContainerInjectableInterface -->
<g id="edge1" class="edge"><title>\\Anax\\Page\\Page&#45;&gt;\\Anax\\Commons\\ContainerInjectableInterface</title>
<path fill="none" stroke="black" stroke-dasharray="1,5" d="M1055.6,-382.12C1030.97,-380.744 994.858,-374.617 974.225,-352 880.751,-249.534 1019.23,-140.049 918.225,-45 912.942,-40.0286 907.252,-35.6343 901.241,-31.7594"/>
<polygon fill="none" stroke="black" points="902.609,-28.5032 892.216,-26.4474 899.059,-34.536 902.609,-28.5032"/>
</g>
<!-- \\Anax\\Controller\\FlatFileContentController -->
<g id="node16" class="node"><title>\\Anax\\Controller\\FlatFileContentController</title>
<polygon fill="none" stroke="black" points="1175.22,-320 990.225,-320 990.225,-284 1175.22,-284 1175.22,-320"/>
<text text-anchor="middle" x="1082.72" y="-299.2" font-family="Courier,monospace" font-size="11.00">FlatFileContentController</text>
</g>
<!-- \\Anax\\Controller\\FlatFileContentController&#45;&gt;\\Anax\\Commons\\ContainerInjectableInterface -->
<g id="edge2" class="edge"><title>\\Anax\\Controller\\FlatFileContentController&#45;&gt;\\Anax\\Commons\\ContainerInjectableInterface</title>
<path fill="none" stroke="black" stroke-dasharray="1,5" d="M990.061,-286.92C984.271,-283.643 978.902,-279.711 974.225,-275 900.101,-200.337 996.916,-114.832 918.225,-45 912.521,-39.9387 906.391,-35.4899 899.931,-31.5899"/>
<polygon fill="none" stroke="black" points="901.372,-28.3868 890.928,-26.6058 897.982,-34.5111 901.372,-28.3868"/>
</g>
<!-- \\Anax\\Controller\\DevelopmentController -->
<g id="node17" class="node"><title>\\Anax\\Controller\\DevelopmentController</title>
<polygon fill="none" stroke="black" points="1161.72,-266 1003.72,-266 1003.72,-230 1161.72,-230 1161.72,-266"/>
<text text-anchor="middle" x="1082.72" y="-245.2" font-family="Courier,monospace" font-size="11.00">DevelopmentController</text>
</g>
<!-- \\Anax\\Controller\\DevelopmentController&#45;&gt;\\Anax\\Commons\\ContainerInjectableInterface -->
<g id="edge4" class="edge"><title>\\Anax\\Controller\\DevelopmentController&#45;&gt;\\Anax\\Commons\\ContainerInjectableInterface</title>
<path fill="none" stroke="black" stroke-dasharray="1,5" d="M1003.69,-238.557C992.84,-234.496 982.568,-228.841 974.225,-221 914.41,-164.783 981.47,-97.3276 918.225,-45 912.057,-39.8966 905.447,-35.4349 898.504,-31.545"/>
<polygon fill="none" stroke="black" points="900.032,-28.3951 889.541,-26.9184 896.822,-34.6153 900.032,-28.3951"/>
</g>
<!-- \\Anax\\Controller\\SampleController -->
<g id="node18" class="node"><title>\\Anax\\Controller\\SampleController</title>
<polygon fill="none" stroke="black" points="1145.22,-212 1020.22,-212 1020.22,-176 1145.22,-176 1145.22,-212"/>
<text text-anchor="middle" x="1082.72" y="-191.2" font-family="Courier,monospace" font-size="11.00">SampleController</text>
</g>
<!-- \\Anax\\Controller\\SampleController&#45;&gt;\\Anax\\Commons\\ContainerInjectableInterface -->
<g id="edge5" class="edge"><title>\\Anax\\Controller\\SampleController&#45;&gt;\\Anax\\Commons\\ContainerInjectableInterface</title>
<path fill="none" stroke="black" stroke-dasharray="1,5" d="M1020.15,-188.291C1003.83,-184.319 987.176,-177.76 974.225,-167 928.336,-128.873 966.431,-80.1528 918.225,-45 911.08,-39.7896 903.454,-35.2871 895.487,-31.4081"/>
<polygon fill="none" stroke="black" points="896.91,-28.2103 886.355,-27.2892 894.032,-34.5913 896.91,-28.2103"/>
</g>
<!-- \\Anax\\Controller\\ErrorHandlerController -->
<g id="node19" class="node"><title>\\Anax\\Controller\\ErrorHandlerController</title>
<polygon fill="none" stroke="black" points="1165.22,-158 1000.22,-158 1000.22,-122 1165.22,-122 1165.22,-158"/>
<text text-anchor="middle" x="1082.72" y="-137.2" font-family="Courier,monospace" font-size="11.00">ErrorHandlerController</text>
</g>
<!-- \\Anax\\Controller\\ErrorHandlerController&#45;&gt;\\Anax\\Commons\\ContainerInjectableInterface -->
<g id="edge6" class="edge"><title>\\Anax\\Controller\\ErrorHandlerController&#45;&gt;\\Anax\\Commons\\ContainerInjectableInterface</title>
<path fill="none" stroke="black" stroke-dasharray="1,5" d="M1057.76,-121.817C1027.17,-99.6472 971.771,-62.9241 918.225,-45 902.586,-39.7649 886.033,-35.5208 869.289,-32.0835"/>
<polygon fill="none" stroke="black" points="869.899,-28.6366 859.413,-30.1515 868.555,-35.5064 869.899,-28.6366"/>
</g>
</g>
</svg>
