<?xml version="1.0" encoding="UTF-8" standalone="no"?>
<!DOCTYPE svg PUBLIC "-//W3C//DTD SVG 1.1//EN"
 "http://www.w3.org/Graphics/SVG/1.1/DTD/svg11.dtd">
<!-- Generated by graphviz version 2.38.0 (20140413.2041)
 -->
<!-- Title: G Pages: 1 -->
<svg width="748pt" height="1046pt"
 viewBox="0.00 0.00 748.06 1046.00" xmlns="http://www.w3.org/2000/svg" xmlns:xlink="http://www.w3.org/1999/xlink">
<g id="graph0" class="graph" transform="scale(1 1) rotate(0) translate(4 1042)">
<title>G</title>
<polygon fill="white" stroke="none" points="-4,4 -4,-1042 744.06,-1042 744.06,4 -4,4"/>
<g id="clust1" class="cluster"><title>cluster_Global</title>
<path fill="none" stroke="gray" d="M144.53,-98C144.53,-98 720.06,-98 720.06,-98 726.06,-98 732.06,-104 732.06,-110 732.06,-110 732.06,-1018 732.06,-1018 732.06,-1024 726.06,-1030 720.06,-1030 720.06,-1030 144.53,-1030 144.53,-1030 138.53,-1030 132.53,-1024 132.53,-1018 132.53,-1018 132.53,-110 132.53,-110 132.53,-104 138.53,-98 144.53,-98"/>
<text text-anchor="middle" x="432.295" y="-1017.2" font-family="Times,serif" font-size="11.00" fill="gray">Global</text>
</g>
<g id="clust2" class="cluster"><title>cluster_\H4MSK1</title>
<path fill="none" stroke="gray" d="M152.53,-464C152.53,-464 675.06,-464 675.06,-464 681.06,-464 687.06,-470 687.06,-476 687.06,-476 687.06,-990 687.06,-990 687.06,-996 681.06,-1002 675.06,-1002 675.06,-1002 152.53,-1002 152.53,-1002 146.53,-1002 140.53,-996 140.53,-990 140.53,-990 140.53,-476 140.53,-476 140.53,-470 146.53,-464 152.53,-464"/>
<text text-anchor="middle" x="413.795" y="-989.2" font-family="Times,serif" font-size="11.00" fill="gray">H4MSK1</text>
</g>
<g id="clust3" class="cluster"><title>cluster_\H4MSK1\Game</title>
<path fill="none" stroke="gray" d="M592.56,-902C592.56,-902 638.56,-902 638.56,-902 644.56,-902 650.56,-908 650.56,-914 650.56,-914 650.56,-962 650.56,-962 650.56,-968 644.56,-974 638.56,-974 638.56,-974 592.56,-974 592.56,-974 586.56,-974 580.56,-968 580.56,-962 580.56,-962 580.56,-914 580.56,-914 580.56,-908 586.56,-902 592.56,-902"/>
<text text-anchor="middle" x="615.56" y="-961.2" font-family="Times,serif" font-size="11.00" fill="gray">Game</text>
</g>
<g id="clust4" class="cluster"><title>cluster_\H4MSK1\Dice</title>
<path fill="none" stroke="gray" d="M160.53,-660C160.53,-660 667.06,-660 667.06,-660 673.06,-660 679.06,-666 679.06,-672 679.06,-672 679.06,-882 679.06,-882 679.06,-888 673.06,-894 667.06,-894 667.06,-894 160.53,-894 160.53,-894 154.53,-894 148.53,-888 148.53,-882 148.53,-882 148.53,-672 148.53,-672 148.53,-666 154.53,-660 160.53,-660"/>
<text text-anchor="middle" x="413.795" y="-881.2" font-family="Times,serif" font-size="11.00" fill="gray">Dice</text>
</g>
<g id="clust5" class="cluster"><title>cluster_\H4MSK1\Guess</title>
<path fill="none" stroke="gray" d="M564.06,-472C564.06,-472 667.06,-472 667.06,-472 673.06,-472 679.06,-478 679.06,-484 679.06,-484 679.06,-640 679.06,-640 679.06,-646 673.06,-652 667.06,-652 667.06,-652 564.06,-652 564.06,-652 558.06,-652 552.06,-646 552.06,-640 552.06,-640 552.06,-484 552.06,-484 552.06,-478 558.06,-472 564.06,-472"/>
<text text-anchor="middle" x="615.56" y="-639.2" font-family="Times,serif" font-size="11.00" fill="gray">Guess</text>
</g>
<g id="clust6" class="cluster"><title>cluster_\Anax</title>
<path fill="none" stroke="gray" d="M519.06,-106C519.06,-106 712.06,-106 712.06,-106 718.06,-106 724.06,-112 724.06,-118 724.06,-118 724.06,-444 724.06,-444 724.06,-450 718.06,-456 712.06,-456 712.06,-456 519.06,-456 519.06,-456 513.06,-456 507.06,-450 507.06,-444 507.06,-444 507.06,-118 507.06,-118 507.06,-112 513.06,-106 519.06,-106"/>
<text text-anchor="middle" x="615.56" y="-443.2" font-family="Times,serif" font-size="11.00" fill="gray">Anax</text>
</g>
<g id="clust7" class="cluster"><title>cluster_\Anax\Page</title>
<path fill="none" stroke="gray" d="M592.56,-356C592.56,-356 638.56,-356 638.56,-356 644.56,-356 650.56,-362 650.56,-368 650.56,-368 650.56,-416 650.56,-416 650.56,-422 644.56,-428 638.56,-428 638.56,-428 592.56,-428 592.56,-428 586.56,-428 580.56,-422 580.56,-416 580.56,-416 580.56,-368 580.56,-368 580.56,-362 586.56,-356 592.56,-356"/>
<text text-anchor="middle" x="615.56" y="-415.2" font-family="Times,serif" font-size="11.00" fill="gray">Page</text>
</g>
<g id="clust8" class="cluster"><title>cluster_\Anax\Controller</title>
<path fill="none" stroke="gray" d="M527.06,-114C527.06,-114 704.06,-114 704.06,-114 710.06,-114 716.06,-120 716.06,-126 716.06,-126 716.06,-336 716.06,-336 716.06,-342 710.06,-348 704.06,-348 704.06,-348 527.06,-348 527.06,-348 521.06,-348 515.06,-342 515.06,-336 515.06,-336 515.06,-126 515.06,-126 515.06,-120 521.06,-114 527.06,-114"/>
<text text-anchor="middle" x="615.56" y="-335.2" font-family="Times,serif" font-size="11.00" fill="gray">Controller</text>
</g>
<!-- \\H4MSK1\\Game\\Game -->
<g id="node1" class="node"><title>\\H4MSK1\\Game\\Game</title>
<polygon fill="none" stroke="black" points="642.56,-946 588.56,-946 588.56,-910 642.56,-910 642.56,-946"/>
<text text-anchor="middle" x="615.56" y="-925.2" font-family="Courier,monospace" font-size="11.00">Game</text>
</g>
<!-- \\H4MSK1\\Dice\\DiceGraphic -->
<g id="node2" class="node"><title>\\H4MSK1\\Dice\\DiceGraphic</title>
<polygon fill="none" stroke="black" points="661.06,-866 570.06,-866 570.06,-830 661.06,-830 661.06,-866"/>
<text text-anchor="middle" x="615.56" y="-845.2" font-family="Courier,monospace" font-size="11.00">DiceGraphic</text>
</g>
<!-- \\H4MSK1\\Dice\\Dice -->
<g id="node4" class="node"><title>\\H4MSK1\\Dice\\Dice</title>
<polygon fill="none" stroke="black" points="252.53,-866 198.53,-866 198.53,-830 252.53,-830 252.53,-866"/>
<text text-anchor="middle" x="225.53" y="-845.2" font-family="Courier,monospace" font-size="11.00">Dice</text>
</g>
<!-- \\H4MSK1\\Dice\\DiceGraphic&#45;&gt;\\H4MSK1\\Dice\\Dice -->
<g id="edge3" class="edge"><title>\\H4MSK1\\Dice\\DiceGraphic&#45;&gt;\\H4MSK1\\Dice\\Dice</title>
<path fill="none" stroke="black" d="M570.048,-848C492.605,-848 334.524,-848 263.057,-848"/>
<polygon fill="none" stroke="black" points="262.758,-844.5 252.758,-848 262.758,-851.5 262.758,-844.5"/>
</g>
<!-- \\H4MSK1\\Dice\\Histogram -->
<g id="node3" class="node"><title>\\H4MSK1\\Dice\\Histogram</title>
<polygon fill="none" stroke="black" points="654.06,-812 577.06,-812 577.06,-776 654.06,-776 654.06,-812"/>
<text text-anchor="middle" x="615.56" y="-791.2" font-family="Courier,monospace" font-size="11.00">Histogram</text>
</g>
<!-- \\H4MSK1\\Dice\\DiceHand -->
<g id="node5" class="node"><title>\\H4MSK1\\Dice\\DiceHand</title>
<polygon fill="none" stroke="black" points="651.06,-758 580.06,-758 580.06,-722 651.06,-722 651.06,-758"/>
<text text-anchor="middle" x="615.56" y="-737.2" font-family="Courier,monospace" font-size="11.00">DiceHand</text>
</g>
<!-- \\H4MSK1\\Dice\\HistogramInterface -->
<g id="node6" class="node"><title>\\H4MSK1\\Dice\\HistogramInterface</title>
<polygon fill="none" stroke="black" points="294.53,-758 156.53,-758 156.53,-722 294.53,-722 294.53,-758"/>
<text text-anchor="middle" x="225.53" y="-737.2" font-family="Courier,monospace" font-size="11.00">HistogramInterface</text>
</g>
<!-- \\H4MSK1\\Dice\\DiceHand&#45;&gt;\\H4MSK1\\Dice\\HistogramInterface -->
<g id="edge8" class="edge"><title>\\H4MSK1\\Dice\\DiceHand&#45;&gt;\\H4MSK1\\Dice\\HistogramInterface</title>
<path fill="none" stroke="black" stroke-dasharray="1,5" d="M579.783,-740C518.203,-740 388.576,-740 304.641,-740"/>
<polygon fill="none" stroke="black" points="304.639,-736.5 294.639,-740 304.639,-743.5 304.639,-736.5"/>
</g>
<!-- \\H4MSK1\\Dice\\HistogramTrait -->
<g id="node7" class="node"><title>\\H4MSK1\\Dice\\HistogramTrait</title>
<polygon fill="none" stroke="black" points="671.06,-704 560.06,-704 560.06,-668 671.06,-668 671.06,-704"/>
<text text-anchor="middle" x="615.56" y="-683.2" font-family="Courier,monospace" font-size="11.00">HistogramTrait</text>
</g>
<!-- \\H4MSK1\\Guess\\GuessException -->
<g id="node8" class="node"><title>\\H4MSK1\\Guess\\GuessException</title>
<polygon fill="none" stroke="black" points="671.06,-624 560.06,-624 560.06,-588 671.06,-588 671.06,-624"/>
<text text-anchor="middle" x="615.56" y="-603.2" font-family="Courier,monospace" font-size="11.00">GuessException</text>
</g>
<!-- \\Exception -->
<g id="node17" class="node"><title>\\Exception</title>
<ellipse fill="none" stroke="black" cx="225.53" cy="-72" rx="60.3893" ry="18"/>
<text text-anchor="middle" x="225.53" y="-68.3" font-family="Times,serif" font-size="14.00" fill="gray">\Exception</text>
</g>
<!-- \\H4MSK1\\Guess\\GuessException&#45;&gt;\\Exception -->
<g id="edge7" class="edge"><title>\\H4MSK1\\Guess\\GuessException&#45;&gt;\\Exception</title>
<path fill="none" stroke="black" d="M559.893,-601.097C541.657,-597.286 522.159,-590.616 507.06,-579 337.907,-448.869 256.454,-186.229 233.513,-100.074"/>
<polygon fill="none" stroke="black" points="236.858,-99.0297 230.946,-90.2377 230.085,-100.797 236.858,-99.0297"/>
</g>
<!-- \\H4MSK1\\Guess\\Session -->
<g id="node9" class="node"><title>\\H4MSK1\\Guess\\Session</title>
<polygon fill="none" stroke="black" points="647.56,-570 583.56,-570 583.56,-534 647.56,-534 647.56,-570"/>
<text text-anchor="middle" x="615.56" y="-549.2" font-family="Courier,monospace" font-size="11.00">Session</text>
</g>
<!-- \\H4MSK1\\Guess\\Guess -->
<g id="node10" class="node"><title>\\H4MSK1\\Guess\\Guess</title>
<polygon fill="none" stroke="black" points="642.56,-516 588.56,-516 588.56,-480 642.56,-480 642.56,-516"/>
<text text-anchor="middle" x="615.56" y="-495.2" font-family="Courier,monospace" font-size="11.00">Guess</text>
</g>
<!-- \\Anax\\Page\\Page -->
<g id="node11" class="node"><title>\\Anax\\Page\\Page</title>
<polygon fill="none" stroke="black" points="642.56,-400 588.56,-400 588.56,-364 642.56,-364 642.56,-400"/>
<text text-anchor="middle" x="615.56" y="-379.2" font-family="Courier,monospace" font-size="11.00">Page</text>
</g>
<!-- \\Anax\\Commons\\ContainerInjectableInterface -->
<g id="node16" class="node"><title>\\Anax\\Commons\\ContainerInjectableInterface</title>
<ellipse fill="none" stroke="black" cx="225.53" cy="-18" rx="225.56" ry="18"/>
<text text-anchor="middle" x="225.53" y="-14.3" font-family="Times,serif" font-size="14.00" fill="gray">\Anax\Commons\ContainerInjectableInterface</text>
</g>
<!-- \\Anax\\Page\\Page&#45;&gt;\\Anax\\Commons\\ContainerInjectableInterface -->
<g id="edge1" class="edge"><title>\\Anax\\Page\\Page&#45;&gt;\\Anax\\Commons\\ContainerInjectableInterface</title>
<path fill="none" stroke="black" stroke-dasharray="1,5" d="M588.431,-382.12C563.806,-380.744 527.693,-374.617 507.06,-352 413.586,-249.534 552.066,-140.049 451.06,-45 445.777,-40.0286 440.087,-35.6343 434.076,-31.7594"/>
<polygon fill="none" stroke="black" points="435.444,-28.5032 425.051,-26.4474 431.894,-34.536 435.444,-28.5032"/>
</g>
<!-- \\Anax\\Controller\\FlatFileContentController -->
<g id="node12" class="node"><title>\\Anax\\Controller\\FlatFileContentController</title>
<polygon fill="none" stroke="black" points="708.06,-320 523.06,-320 523.06,-284 708.06,-284 708.06,-320"/>
<text text-anchor="middle" x="615.56" y="-299.2" font-family="Courier,monospace" font-size="11.00">FlatFileContentController</text>
</g>
<!-- \\Anax\\Controller\\FlatFileContentController&#45;&gt;\\Anax\\Commons\\ContainerInjectableInterface -->
<g id="edge2" class="edge"><title>\\Anax\\Controller\\FlatFileContentController&#45;&gt;\\Anax\\Commons\\ContainerInjectableInterface</title>
<path fill="none" stroke="black" stroke-dasharray="1,5" d="M522.896,-286.92C517.106,-283.643 511.737,-279.711 507.06,-275 432.936,-200.337 529.751,-114.832 451.06,-45 445.357,-39.9387 439.226,-35.4899 432.766,-31.5899"/>
<polygon fill="none" stroke="black" points="434.207,-28.3868 423.763,-26.6058 430.817,-34.5111 434.207,-28.3868"/>
</g>
<!-- \\Anax\\Controller\\DevelopmentController -->
<g id="node13" class="node"><title>\\Anax\\Controller\\DevelopmentController</title>
<polygon fill="none" stroke="black" points="694.56,-266 536.56,-266 536.56,-230 694.56,-230 694.56,-266"/>
<text text-anchor="middle" x="615.56" y="-245.2" font-family="Courier,monospace" font-size="11.00">DevelopmentController</text>
</g>
<!-- \\Anax\\Controller\\DevelopmentController&#45;&gt;\\Anax\\Commons\\ContainerInjectableInterface -->
<g id="edge4" class="edge"><title>\\Anax\\Controller\\DevelopmentController&#45;&gt;\\Anax\\Commons\\ContainerInjectableInterface</title>
<path fill="none" stroke="black" stroke-dasharray="1,5" d="M536.528,-238.557C525.675,-234.496 515.403,-228.841 507.06,-221 447.246,-164.783 514.305,-97.3276 451.06,-45 444.892,-39.8966 438.282,-35.4349 431.339,-31.545"/>
<polygon fill="none" stroke="black" points="432.867,-28.3951 422.376,-26.9184 429.657,-34.6153 432.867,-28.3951"/>
</g>
<!-- \\Anax\\Controller\\SampleController -->
<g id="node14" class="node"><title>\\Anax\\Controller\\SampleController</title>
<polygon fill="none" stroke="black" points="678.06,-212 553.06,-212 553.06,-176 678.06,-176 678.06,-212"/>
<text text-anchor="middle" x="615.56" y="-191.2" font-family="Courier,monospace" font-size="11.00">SampleController</text>
</g>
<!-- \\Anax\\Controller\\SampleController&#45;&gt;\\Anax\\Commons\\ContainerInjectableInterface -->
<g id="edge5" class="edge"><title>\\Anax\\Controller\\SampleController&#45;&gt;\\Anax\\Commons\\ContainerInjectableInterface</title>
<path fill="none" stroke="black" stroke-dasharray="1,5" d="M552.983,-188.291C536.667,-184.319 520.011,-177.76 507.06,-167 461.171,-128.873 499.266,-80.1528 451.06,-45 443.915,-39.7896 436.289,-35.2871 428.322,-31.4081"/>
<polygon fill="none" stroke="black" points="429.745,-28.2103 419.19,-27.2892 426.867,-34.5913 429.745,-28.2103"/>
</g>
<!-- \\Anax\\Controller\\ErrorHandlerController -->
<g id="node15" class="node"><title>\\Anax\\Controller\\ErrorHandlerController</title>
<polygon fill="none" stroke="black" points="698.06,-158 533.06,-158 533.06,-122 698.06,-122 698.06,-158"/>
<text text-anchor="middle" x="615.56" y="-137.2" font-family="Courier,monospace" font-size="11.00">ErrorHandlerController</text>
</g>
<!-- \\Anax\\Controller\\ErrorHandlerController&#45;&gt;\\Anax\\Commons\\ContainerInjectableInterface -->
<g id="edge6" class="edge"><title>\\Anax\\Controller\\ErrorHandlerController&#45;&gt;\\Anax\\Commons\\ContainerInjectableInterface</title>
<path fill="none" stroke="black" stroke-dasharray="1,5" d="M590.597,-121.817C560.006,-99.6472 504.606,-62.9241 451.06,-45 435.421,-39.7649 418.869,-35.5208 402.124,-32.0835"/>
<polygon fill="none" stroke="black" points="402.734,-28.6366 392.249,-30.1515 401.39,-35.5064 402.734,-28.6366"/>
</g>
</g>
</svg>
